<mxfile host="app.diagrams.net" agent="Mozilla/5.0 (Windows NT 10.0; Win64; x64) AppleWebKit/537.36 (KHTML, like Gecko) Chrome/132.0.0.0 Safari/537.36" version="26.0.10">
  <diagram name="Page-1" id="NI9bAhAlu8LAqY2Mc1K7">
    <mxGraphModel dx="1776" dy="624" grid="1" gridSize="10" guides="1" tooltips="1" connect="1" arrows="1" fold="1" page="1" pageScale="1" pageWidth="827" pageHeight="1169" background="#FFFFCC" math="0" shadow="0">
      <root>
        <mxCell id="0" />
        <mxCell id="1" parent="0" />
        <mxCell id="ts9uNKOrzQD-F2wGUTk8-1" value="&lt;font style=&quot;font-size: 48px;&quot;&gt;WP 1&amp;nbsp; &amp;nbsp;Project Management&lt;/font&gt;" style="rounded=1;whiteSpace=wrap;html=1;labelBackgroundColor=none;fillColor=#5D7F99;strokeColor=#D0CEE2;fontColor=#1A1A1A;" vertex="1" parent="1">
          <mxGeometry x="10" y="20" width="1110" height="100" as="geometry" />
        </mxCell>
        <mxCell id="ts9uNKOrzQD-F2wGUTk8-11" style="edgeStyle=orthogonalEdgeStyle;shape=flexArrow;rounded=0;orthogonalLoop=1;jettySize=auto;html=1;labelBackgroundColor=none;strokeColor=#23445d;fontColor=default;fillColor=#bac8d3;" edge="1" parent="1" source="ts9uNKOrzQD-F2wGUTk8-3" target="ts9uNKOrzQD-F2wGUTk8-5">
          <mxGeometry relative="1" as="geometry" />
        </mxCell>
        <mxCell id="ts9uNKOrzQD-F2wGUTk8-3" value="&lt;font style=&quot;font-size: 36px;&quot;&gt;WP2&amp;nbsp; &amp;nbsp;Needs&amp;nbsp;&lt;br&gt;Assessment&lt;/font&gt;" style="rounded=1;whiteSpace=wrap;html=1;labelBackgroundColor=none;fillColor=#5D7F99;strokeColor=#D0CEE2;fontColor=#1A1A1A;" vertex="1" parent="1">
          <mxGeometry x="370" y="160" width="341" height="100" as="geometry" />
        </mxCell>
        <mxCell id="ts9uNKOrzQD-F2wGUTk8-12" style="edgeStyle=orthogonalEdgeStyle;shape=flexArrow;rounded=0;orthogonalLoop=1;jettySize=auto;html=1;exitX=0.5;exitY=1;exitDx=0;exitDy=0;entryX=0.5;entryY=0;entryDx=0;entryDy=0;labelBackgroundColor=none;strokeColor=#56517e;fontColor=default;fillColor=#d0cee2;" edge="1" parent="1" source="ts9uNKOrzQD-F2wGUTk8-4" target="ts9uNKOrzQD-F2wGUTk8-6">
          <mxGeometry relative="1" as="geometry" />
        </mxCell>
        <mxCell id="ts9uNKOrzQD-F2wGUTk8-4" value="&lt;font style=&quot;font-size: 36px;&quot;&gt;WP3 Industrial Learning&amp;nbsp;&lt;br&gt;Environment&lt;/font&gt;" style="rounded=1;whiteSpace=wrap;html=1;labelBackgroundColor=none;fillColor=#5D7F99;strokeColor=#D0CEE2;fontColor=#1A1A1A;" vertex="1" parent="1">
          <mxGeometry x="90" y="320" width="420" height="120" as="geometry" />
        </mxCell>
        <mxCell id="ts9uNKOrzQD-F2wGUTk8-13" style="edgeStyle=orthogonalEdgeStyle;shape=flexArrow;rounded=0;orthogonalLoop=1;jettySize=auto;html=1;exitX=0.5;exitY=1;exitDx=0;exitDy=0;labelBackgroundColor=none;strokeColor=#56517e;fontColor=default;fillColor=#d0cee2;" edge="1" parent="1" source="ts9uNKOrzQD-F2wGUTk8-5">
          <mxGeometry relative="1" as="geometry">
            <mxPoint x="560" y="510" as="targetPoint" />
          </mxGeometry>
        </mxCell>
        <mxCell id="ts9uNKOrzQD-F2wGUTk8-5" value="&lt;font style=&quot;font-size: 36px;&quot;&gt;WP4 Integration and Capacity Building for TVET&lt;/font&gt;" style="rounded=1;whiteSpace=wrap;html=1;labelBackgroundColor=none;fillColor=#5D7F99;strokeColor=#D0CEE2;fontColor=#1A1A1A;" vertex="1" parent="1">
          <mxGeometry x="630" y="320" width="420" height="120" as="geometry" />
        </mxCell>
        <mxCell id="ts9uNKOrzQD-F2wGUTk8-6" value="&lt;font style=&quot;font-size: 36px;&quot;&gt;WP5 Work Based Learning Launch&lt;/font&gt;" style="rounded=1;whiteSpace=wrap;html=1;labelBackgroundColor=none;fillColor=#5D7F99;strokeColor=#D0CEE2;fontColor=#1A1A1A;" vertex="1" parent="1">
          <mxGeometry x="400" y="510" width="330" height="90" as="geometry" />
        </mxCell>
        <mxCell id="ts9uNKOrzQD-F2wGUTk8-7" value="&lt;font style=&quot;font-size: 48px;&quot;&gt;WP6&amp;nbsp; Communication, networking and Scale Up&lt;/font&gt;" style="rounded=1;whiteSpace=wrap;html=1;labelBackgroundColor=none;fillColor=#5D7F99;strokeColor=#D0CEE2;fontColor=#1A1A1A;" vertex="1" parent="1">
          <mxGeometry x="20" y="690" width="1110" height="100" as="geometry" />
        </mxCell>
        <mxCell id="ts9uNKOrzQD-F2wGUTk8-8" style="edgeStyle=orthogonalEdgeStyle;rounded=0;orthogonalLoop=1;jettySize=auto;html=1;entryX=0.027;entryY=0;entryDx=0;entryDy=0;entryPerimeter=0;shape=flexArrow;labelBackgroundColor=none;strokeColor=#736CA8;fontColor=default;" edge="1" parent="1" target="ts9uNKOrzQD-F2wGUTk8-7">
          <mxGeometry relative="1" as="geometry">
            <mxPoint x="50" y="120" as="sourcePoint" />
            <Array as="points">
              <mxPoint x="50" y="120" />
            </Array>
          </mxGeometry>
        </mxCell>
        <mxCell id="ts9uNKOrzQD-F2wGUTk8-9" style="edgeStyle=orthogonalEdgeStyle;shape=flexArrow;rounded=0;orthogonalLoop=1;jettySize=auto;html=1;exitX=0.5;exitY=1;exitDx=0;exitDy=0;entryX=0.573;entryY=-0.03;entryDx=0;entryDy=0;entryPerimeter=0;labelBackgroundColor=none;strokeColor=#23445d;fontColor=default;fillColor=#bac8d3;" edge="1" parent="1" source="ts9uNKOrzQD-F2wGUTk8-1" target="ts9uNKOrzQD-F2wGUTk8-3">
          <mxGeometry relative="1" as="geometry" />
        </mxCell>
        <mxCell id="ts9uNKOrzQD-F2wGUTk8-15" value="" style="edgeLabel;html=1;align=center;verticalAlign=middle;resizable=0;points=[];strokeColor=#D0CEE2;fontColor=#1A1A1A;fillColor=#5D7F99;" vertex="1" connectable="0" parent="ts9uNKOrzQD-F2wGUTk8-9">
          <mxGeometry x="0.0789" y="-4" relative="1" as="geometry">
            <mxPoint as="offset" />
          </mxGeometry>
        </mxCell>
        <mxCell id="ts9uNKOrzQD-F2wGUTk8-10" style="edgeStyle=orthogonalEdgeStyle;shape=flexArrow;rounded=0;orthogonalLoop=1;jettySize=auto;html=1;exitX=0.5;exitY=1;exitDx=0;exitDy=0;entryX=0.462;entryY=-0.003;entryDx=0;entryDy=0;entryPerimeter=0;labelBackgroundColor=none;strokeColor=#23445d;fontColor=default;fillColor=#bac8d3;" edge="1" parent="1" source="ts9uNKOrzQD-F2wGUTk8-3" target="ts9uNKOrzQD-F2wGUTk8-4">
          <mxGeometry relative="1" as="geometry" />
        </mxCell>
        <mxCell id="ts9uNKOrzQD-F2wGUTk8-14" style="edgeStyle=orthogonalEdgeStyle;shape=flexArrow;rounded=0;orthogonalLoop=1;jettySize=auto;html=1;exitX=0.5;exitY=1;exitDx=0;exitDy=0;entryX=0.491;entryY=0;entryDx=0;entryDy=0;entryPerimeter=0;labelBackgroundColor=none;strokeColor=#56517e;fontColor=default;fillColor=#d0cee2;" edge="1" parent="1" source="ts9uNKOrzQD-F2wGUTk8-6" target="ts9uNKOrzQD-F2wGUTk8-7">
          <mxGeometry relative="1" as="geometry" />
        </mxCell>
      </root>
    </mxGraphModel>
  </diagram>
</mxfile>
